<svg xmlns="http://www.w3.org/2000/svg" xmlns:xlink="http://www.w3.org/1999/xlink"
  viewBox="706.11 413.35 1022.35 1009.86">
  <g>
    <path fill="#61A374"
      d="M747.818 835.344C750.523 835.187 753.251 835.035 755.962 835.128Q757.175 835.179 758.385 835.286Q759.594 835.393 760.797 835.556Q762 835.719 763.195 835.937Q764.389 836.156 765.572 836.43Q766.755 836.703 767.924 837.032Q769.093 837.36 770.245 837.742Q771.398 838.125 772.531 838.56Q773.665 838.995 774.777 839.483Q775.889 839.97 776.977 840.508Q778.066 841.047 779.128 841.635Q780.19 842.224 781.224 842.861Q782.257 843.498 783.26 844.182Q784.264 844.866 785.234 845.596Q786.204 846.326 787.139 847.101Q788.075 847.875 788.973 848.692Q789.871 849.508 790.731 850.366C807.671 866.937 811.466 892.95 827.021 911.217C844.599 931.86 865.415 949.868 884.443 969.164C918.321 1003.52 951.397 1038.52 984.649 1073.48C978.446 1091.61 976.419 1112.52 978.689 1131.53Q978.873 1133.03 979.093 1134.53Q979.314 1136.02 979.571 1137.51Q979.829 1139 980.123 1140.48Q980.417 1141.97 980.747 1143.44Q981.078 1144.92 981.445 1146.38Q981.812 1147.85 982.214 1149.31Q982.617 1150.76 983.056 1152.21Q983.495 1153.66 983.969 1155.09Q984.443 1156.53 984.952 1157.95Q985.462 1159.37 986.006 1160.78Q986.55 1162.19 987.129 1163.59Q987.708 1164.99 988.322 1166.37Q988.935 1167.75 989.582 1169.12Q990.229 1170.48 990.91 1171.83Q991.59 1173.18 992.304 1174.51Q993.017 1175.85 993.764 1177.16Q994.51 1178.47 995.289 1179.77Q996.067 1181.07 996.877 1182.34Q997.688 1183.62 998.529 1184.87Q999.37 1186.13 1000.24 1187.36Q1001.11 1188.6 1002.02 1189.81Q1002.92 1191.02 1003.85 1192.22Q1004.78 1193.41 1005.74 1194.57Q1006.7 1195.74 1007.69 1196.88Q1008.68 1198.02 1009.7 1199.14Q1010.72 1200.26 1011.76 1201.35Q1012.81 1202.45 1013.88 1203.51Q1014.95 1204.58 1016.05 1205.62Q1017.14 1206.66 1018.27 1207.67Q1019.39 1208.68 1020.54 1209.67Q1021.68 1210.65 1022.85 1211.61Q1024.03 1212.56 1025.22 1213.49C1053.83 1235.72 1089.28 1240.74 1124.29 1236.46C1133.28 1243.95 1141.2 1253.49 1149.16 1262.07Q1169.36 1284.04 1189.96 1305.65C1225.61 1342.88 1263.61 1378.5 1297.81 1417.03C1285.98 1419.91 1273.1 1420.74 1260.96 1421.42C1167.87 1429.59 1064.13 1409.44 981.54 1365.59Q975.967 1362.56 970.47 1359.4Q964.972 1356.24 959.553 1352.94Q954.134 1349.64 948.797 1346.22Q943.459 1342.79 938.207 1339.23Q932.955 1335.68 927.79 1332Q922.626 1328.31 917.552 1324.51Q912.479 1320.7 907.5 1316.77Q902.521 1312.84 897.638 1308.8Q892.756 1304.75 887.974 1300.58Q883.191 1296.41 878.512 1292.13Q873.832 1287.85 869.258 1283.46Q864.683 1279.06 860.217 1274.56Q855.751 1270.06 851.396 1265.45Q847.041 1260.83 842.799 1256.12Q838.557 1251.4 834.432 1246.59Q830.306 1241.77 826.298 1236.85Q822.291 1231.94 818.404 1226.92Q814.517 1221.91 810.753 1216.81Q806.989 1211.7 803.351 1206.51Q799.712 1201.31 796.201 1196.03Q792.69 1190.75 789.308 1185.38Q785.927 1180.02 782.676 1174.57Q779.426 1169.12 776.309 1163.6Q773.192 1158.07 770.211 1152.48Q767.229 1146.88 764.385 1141.21Q761.54 1135.54 758.834 1129.8Q756.128 1124.07 753.562 1118.27Q750.997 1112.47 748.573 1106.61Q746.149 1100.74 743.868 1094.83Q741.588 1088.91 739.452 1082.94Q737.316 1076.96 735.325 1070.94Q733.335 1064.92 731.492 1058.85C717.813 1013.82 691.941 897.06 715.886 855.086C722.66 843.213 735.412 838.671 747.818 835.344Z"></path>
    <path fill="#ffff"
      d="M1680.86 840.228C1688.69 839.097 1698.35 840.491 1705.3 844.304C1715.65 849.978 1721.53 860.331 1724.49 871.399C1729.32 889.473 1728.69 909.486 1727.94 928.071Q1727.57 935.896 1726.97 943.707Q1726.37 951.517 1725.54 959.307Q1724.71 967.096 1723.65 974.858Q1722.59 982.619 1721.3 990.346Q1720.01 998.072 1718.49 1005.76Q1716.97 1013.44 1715.22 1021.08Q1713.47 1028.72 1711.5 1036.3Q1709.53 1043.88 1707.34 1051.4Q1705.14 1058.92 1702.72 1066.37Q1700.31 1073.82 1697.67 1081.2Q1695.03 1088.57 1692.18 1095.87Q1689.32 1103.16 1686.26 1110.37Q1683.19 1117.58 1679.9 1124.69Q1676.62 1131.81 1673.13 1138.82Q1669.64 1145.83 1665.95 1152.74Q1662.25 1159.65 1658.35 1166.44C1587.41 1289.96 1466.9 1374.19 1330.59 1411Q1313.66 1394.87 1296.92 1378.55Q1256 1339.12 1217.93 1296.92C1250.74 1268.08 1282.3 1237.28 1313.18 1206.37C1325.28 1194.25 1336.41 1181.07 1349.07 1169.51C1360.54 1171.64 1372.94 1172.92 1384.59 1172.7C1414.65 1172.13 1446.31 1159.22 1467.2 1137.44C1488.9 1114.82 1497.65 1085.6 1497.02 1054.77C1506.68 1043.73 1517.55 1033.42 1527.6 1022.69C1546.22 1002.82 1564.52 982.516 1583.62 963.123C1598.47 948.05 1616.09 934.074 1628.49 916.91C1641.55 898.832 1638.7 874.346 1651.51 856.6C1658.61 846.775 1669.26 842.111 1680.86 840.228Z"></path>
    <path fill="#61A374"
      d="M1229.17 413.436Q1235.51 413.216 1241.85 413.539C1350.41 419.392 1462.41 470.589 1534.88 552.114C1594.09 618.733 1622.75 710.24 1617.38 798.753C1614.61 844.444 1597.25 913.381 1562.06 944.632C1552.01 950.395 1541.05 953.576 1529.44 950.931C1519.71 948.715 1512.74 942.956 1506.68 935.332C1492.91 917.987 1484.42 895.208 1475.21 875.218Q1461.68 846.275 1447.39 817.702C1440.89 804.527 1434.79 790.932 1427.18 778.36L1426.24 776.813L1426.66 776.084L1427.34 774.859C1437.61 756.672 1440.57 734.453 1437.67 713.935Q1437.48 712.526 1437.26 711.122Q1437.04 709.717 1436.78 708.319Q1436.52 706.921 1436.23 705.53Q1435.94 704.139 1435.61 702.756Q1435.28 701.373 1434.92 699.998Q1434.55 698.624 1434.16 697.259Q1433.76 695.894 1433.33 694.54Q1432.89 693.185 1432.43 691.842Q1431.96 690.5 1431.46 689.169Q1430.96 687.838 1430.43 686.521Q1429.89 685.203 1429.33 683.899Q1428.76 682.596 1428.16 681.307Q1427.56 680.018 1426.93 678.745Q1426.3 677.471 1425.63 676.214Q1424.97 674.957 1424.27 673.718Q1423.57 672.478 1422.85 671.257Q1422.12 670.035 1421.36 668.832Q1420.6 667.629 1419.82 666.446Q1419.03 665.263 1418.21 664.1Q1417.39 662.937 1416.55 661.795Q1415.7 660.654 1414.82 659.534Q1413.95 658.414 1413.04 657.316Q1412.14 656.219 1411.21 655.144Q1410.28 654.07 1409.32 653.02Q1408.36 651.969 1407.38 650.944Q1406.39 649.918 1405.38 648.918Q1404.37 647.917 1403.34 646.943Q1402.3 645.968 1401.24 645.02Q1400.18 644.072 1399.1 643.151Q1398.02 642.23 1396.91 641.337Q1395.81 640.444 1394.68 639.579Q1393.55 638.714 1392.4 637.878C1359.35 613.475 1325.66 612.703 1286.45 618.566C1278.43 607.141 1272.58 593.405 1265.3 581.377C1253.58 562.031 1241.45 542.921 1229.52 523.709C1217.79 504.835 1202.63 483.295 1196.68 461.731C1194.02 452.07 1195.5 440.054 1200.66 431.516C1207.11 420.863 1217.51 416.004 1229.17 413.436Z"></path>
    <path fill="#61A374"
      d="M1091.37 1012.34C1091.68 1012.27 1091.99 1012.18 1092.3 1012.13C1113.82 1008.8 1145.06 1017.83 1162.51 1030.97C1184.9 1047.82 1199.62 1074.21 1203.28 1101.9Q1203.46 1103.15 1203.6 1104.41Q1203.74 1105.66 1203.86 1106.92Q1203.97 1108.18 1204.05 1109.44Q1204.13 1110.7 1204.18 1111.97Q1204.23 1113.23 1204.25 1114.49Q1204.27 1115.76 1204.25 1117.02Q1204.24 1118.28 1204.19 1119.55Q1204.15 1120.81 1204.07 1122.07Q1203.99 1123.33 1203.88 1124.59Q1203.77 1125.85 1203.63 1127.11Q1203.49 1128.36 1203.32 1129.62Q1203.15 1130.87 1202.95 1132.12Q1202.74 1133.36 1202.51 1134.61Q1202.28 1135.85 1202.01 1137.08Q1201.75 1138.32 1201.45 1139.55Q1201.15 1140.78 1200.83 1142Q1200.5 1143.22 1200.14 1144.43Q1199.78 1145.64 1199.4 1146.85Q1199.01 1148.05 1198.59 1149.24Q1198.17 1150.44 1197.73 1151.62Q1197.28 1152.8 1196.8 1153.97Q1196.33 1155.14 1195.82 1156.3Q1195.31 1157.46 1194.78 1158.6Q1194.24 1159.75 1193.68 1160.88Q1193.12 1162.01 1192.53 1163.13Q1191.93 1164.24 1191.32 1165.35Q1190.7 1166.45 1190.05 1167.53Q1189.4 1168.62 1188.73 1169.69Q1188.06 1170.76 1187.35 1171.81Q1186.65 1172.86 1185.93 1173.9Q1185.2 1174.93 1184.45 1175.95Q1183.7 1176.96 1182.92 1177.96C1165.32 1200.84 1139.87 1214.66 1111.41 1218.3C1085.37 1219.21 1060.91 1215.62 1039.87 1198.99C1017.74 1181.49 1003.01 1154.11 999.894 1126.15C996.75 1097.97 1005.99 1068.56 1023.69 1046.5C1040.66 1025.35 1064.96 1015.4 1091.37 1012.34Z"></path>
    <path fill="#ffff"
      d="M1371.87 957.458C1393.28 956.315 1415.69 961.518 1433.8 973.15C1454.92 986.72 1469.6 1009.53 1474.62 1034.01Q1474.86 1035.23 1475.07 1036.46Q1475.28 1037.69 1475.46 1038.92Q1475.64 1040.16 1475.78 1041.39Q1475.93 1042.63 1476.05 1043.87Q1476.17 1045.11 1476.26 1046.35Q1476.34 1047.6 1476.4 1048.84Q1476.46 1050.09 1476.48 1051.33Q1476.51 1052.58 1476.51 1053.82Q1476.5 1055.07 1476.47 1056.32Q1476.43 1057.56 1476.37 1058.81Q1476.3 1060.05 1476.21 1061.29Q1476.11 1062.54 1475.99 1063.77Q1475.86 1065.01 1475.7 1066.25Q1475.55 1067.49 1475.36 1068.72Q1475.17 1069.95 1474.96 1071.18Q1474.74 1072.41 1474.49 1073.63Q1474.25 1074.85 1473.97 1076.06Q1473.69 1077.28 1473.39 1078.49Q1473.08 1079.69 1472.74 1080.89Q1472.41 1082.09 1472.04 1083.28Q1471.68 1084.48 1471.28 1085.66Q1470.89 1086.84 1470.46 1088.01Q1470.04 1089.18 1469.59 1090.34Q1469.14 1091.51 1468.66 1092.66Q1468.18 1093.81 1467.67 1094.94Q1467.16 1096.08 1466.62 1097.21Q1466.09 1098.33 1465.52 1099.44Q1464.96 1100.55 1464.37 1101.65Q1463.78 1102.75 1463.16 1103.83Q1462.54 1104.91 1461.9 1105.98Q1461.26 1107.04 1460.59 1108.1Q1459.92 1109.15 1459.22 1110.18C1441.75 1136 1415.85 1146.95 1386.24 1152.51C1361.88 1153.75 1339.06 1148.13 1319.31 1133.41Q1318.37 1132.7 1317.45 1131.97Q1316.53 1131.23 1315.62 1130.48Q1314.72 1129.72 1313.83 1128.94Q1312.95 1128.17 1312.08 1127.37Q1311.22 1126.57 1310.37 1125.75Q1309.53 1124.93 1308.7 1124.09Q1307.88 1123.25 1307.07 1122.39Q1306.27 1121.53 1305.48 1120.65Q1304.7 1119.77 1303.94 1118.87Q1303.18 1117.97 1302.44 1117.05Q1301.7 1116.14 1300.98 1115.2Q1300.27 1114.27 1299.57 1113.31Q1298.88 1112.36 1298.21 1111.39Q1297.54 1110.42 1296.89 1109.44Q1296.25 1108.45 1295.63 1107.45Q1295.01 1106.45 1294.41 1105.44Q1293.81 1104.42 1293.24 1103.39Q1292.67 1102.36 1292.12 1101.32Q1291.58 1100.27 1291.06 1099.22Q1290.53 1098.16 1290.04 1097.09Q1289.55 1096.02 1289.08 1094.94Q1288.61 1093.86 1288.17 1092.77Q1287.73 1091.68 1287.31 1090.57Q1286.9 1089.47 1286.51 1088.36Q1286.12 1087.25 1285.76 1086.13Q1285.4 1085 1285.07 1083.87Q1284.74 1082.74 1284.43 1081.61Q1284.13 1080.47 1283.85 1079.32Q1283.57 1078.18 1283.33 1077.03Q1283.08 1075.88 1282.86 1074.72Q1282.64 1073.56 1282.44 1072.4Q1282.25 1071.24 1282.09 1070.07C1278.29 1043.86 1285.02 1015.9 1301 994.669C1318.47 971.482 1343.98 961.369 1371.87 957.458Z"></path>
    <path fill="#61A374"
      d="M1315.35 635.338C1338.2 632.396 1364.38 640.56 1382.46 654.476Q1383.37 655.182 1384.26 655.911Q1385.16 656.639 1386.03 657.39Q1386.9 658.141 1387.76 658.913Q1388.61 659.686 1389.45 660.479Q1390.28 661.273 1391.1 662.087Q1391.91 662.902 1392.71 663.736Q1393.5 664.571 1394.28 665.425Q1395.05 666.279 1395.8 667.153Q1396.55 668.026 1397.28 668.918Q1398.01 669.81 1398.72 670.72Q1399.43 671.63 1400.11 672.557Q1400.79 673.484 1401.45 674.428Q1402.11 675.373 1402.75 676.333Q1403.39 677.293 1404 678.269Q1404.61 679.246 1405.2 680.237Q1405.79 681.228 1406.35 682.233Q1406.91 683.239 1407.45 684.258Q1407.99 685.278 1408.5 686.31Q1409.01 687.343 1409.49 688.388Q1409.98 689.433 1410.44 690.49Q1410.9 691.546 1411.33 692.614Q1411.76 693.682 1412.17 694.761Q1412.57 695.839 1412.95 696.928Q1413.33 698.016 1413.68 699.114Q1414.03 700.211 1414.35 701.317Q1414.68 702.423 1414.97 703.537Q1415.27 704.65 1415.54 705.771Q1415.8 706.892 1416.04 708.019Q1416.28 709.146 1416.49 710.279Q1416.7 711.411 1416.89 712.549Q1417.07 713.687 1417.22 714.829Q1417.37 715.971 1417.5 717.116Q1417.65 718.348 1417.77 719.584Q1417.89 720.819 1417.98 722.057Q1418.07 723.296 1418.13 724.536Q1418.19 725.776 1418.22 727.017Q1418.25 728.258 1418.24 729.499Q1418.24 730.74 1418.21 731.982Q1418.18 733.222 1418.12 734.462Q1418.05 735.702 1417.96 736.94Q1417.87 738.178 1417.74 739.413Q1417.62 740.648 1417.47 741.88Q1417.31 743.112 1417.13 744.34Q1416.94 745.567 1416.73 746.79Q1416.52 748.013 1416.27 749.23Q1416.03 750.447 1415.75 751.658Q1415.48 752.869 1415.18 754.072Q1414.87 755.276 1414.54 756.472Q1414.21 757.668 1413.84 758.855Q1413.48 760.042 1413.09 761.221Q1412.7 762.399 1412.28 763.567Q1411.86 764.735 1411.41 765.892Q1410.96 767.05 1410.48 768.196Q1410.01 769.342 1409.5 770.476Q1409 771.61 1408.46 772.731Q1407.93 773.852 1407.37 774.96Q1406.81 776.068 1406.22 777.161Q1405.64 778.255 1405.02 779.334Q1404.41 780.413 1403.77 781.477Q1403.13 782.54 1402.46 783.588Q1401.8 784.635 1401.1 785.666Q1400.41 786.697 1399.7 787.71Q1398.98 788.724 1398.24 789.719Q1397.5 790.715 1396.73 791.692C1378.58 814.705 1353.49 825.794 1324.88 829.208Q1322.69 829.303 1320.49 829.3Q1318.3 829.297 1316.11 829.196Q1313.92 829.095 1311.73 828.896Q1309.54 828.696 1307.37 828.399Q1305.2 828.102 1303.04 827.708Q1300.88 827.314 1298.74 826.823Q1296.6 826.333 1294.49 825.747Q1292.37 825.161 1290.29 824.481Q1288.2 823.801 1286.15 823.029Q1284.09 822.256 1282.07 821.392Q1280.06 820.528 1278.08 819.575Q1276.11 818.621 1274.17 817.58Q1272.24 816.539 1270.36 815.413Q1268.48 814.286 1266.65 813.077Q1264.81 811.867 1263.04 810.576Q1261.27 809.286 1259.55 807.917Q1258.59 807.153 1257.65 806.365Q1256.72 805.577 1255.8 804.766Q1254.88 803.955 1253.98 803.121Q1253.08 802.287 1252.21 801.432Q1251.33 800.576 1250.48 799.699Q1249.62 798.822 1248.79 797.924Q1247.95 797.026 1247.14 796.107Q1246.33 795.189 1245.54 794.25Q1244.76 793.312 1243.99 792.354Q1243.23 791.396 1242.49 790.42Q1241.75 789.444 1241.03 788.449Q1240.32 787.455 1239.63 786.443Q1238.94 785.431 1238.27 784.403Q1237.61 783.374 1236.97 782.329Q1236.33 781.284 1235.71 780.224Q1235.1 779.163 1234.51 778.088Q1233.93 777.012 1233.37 775.923Q1232.81 774.833 1232.27 773.73Q1231.74 772.627 1231.23 771.51Q1230.73 770.394 1230.25 769.266Q1229.77 768.138 1229.33 766.998Q1228.88 765.858 1228.46 764.708Q1228.03 763.557 1227.64 762.396Q1227.25 761.236 1226.89 760.066Q1226.52 758.896 1226.19 757.717Q1225.86 756.538 1225.55 755.351Q1225.25 754.165 1224.97 752.971Q1224.7 751.777 1224.45 750.577Q1224.21 749.376 1223.99 748.17Q1223.78 746.964 1223.59 745.753Q1223.41 744.542 1223.25 743.327Q1223.09 742.112 1222.97 740.893Q1222.85 739.764 1222.77 738.632Q1222.68 737.501 1222.62 736.367Q1222.56 735.234 1222.52 734.1Q1222.49 732.965 1222.49 731.83Q1222.48 730.695 1222.5 729.56Q1222.52 728.426 1222.57 727.292Q1222.62 726.158 1222.7 725.026Q1222.77 723.893 1222.88 722.763Q1222.98 721.633 1223.11 720.505Q1223.25 719.378 1223.4 718.254Q1223.56 717.13 1223.75 716.011Q1223.93 714.891 1224.15 713.776Q1224.36 712.661 1224.6 711.552Q1224.84 710.443 1225.11 709.339Q1225.37 708.236 1225.67 707.14Q1225.96 706.043 1226.28 704.954Q1226.6 703.865 1226.94 702.784Q1227.29 701.703 1227.66 700.631Q1228.03 699.559 1228.43 698.496Q1228.83 697.433 1229.25 696.38Q1229.68 695.327 1230.13 694.284Q1230.58 693.242 1231.05 692.211Q1231.52 691.179 1232.02 690.16Q1232.52 689.141 1233.04 688.133Q1233.57 687.126 1234.11 686.132Q1234.66 685.138 1235.23 684.157Q1235.81 683.177 1236.4 682.21Q1237 681.244 1237.61 680.292Q1238.23 679.34 1238.87 678.403Q1239.51 677.467 1240.18 676.546Q1240.84 675.625 1241.53 674.721Q1242.21 673.817 1242.92 672.929C1261.14 650.346 1286.75 638.299 1315.35 635.338Z"></path>
  </g>
  <g>
    <path
      d="M1094.87 490.578Q1116.83 489.425 1138.78 490.628C1152.48 491.509 1167.06 494.163 1176.38 505.291C1182.78 512.925 1186.23 524.612 1184.84 534.536C1183.61 543.276 1177.93 550.979 1172.56 557.719C1161.71 571.331 1147.7 582.625 1135.47 594.982C1116.84 613.792 1099.54 634.872 1078.77 651.383C1049.68 647.174 1023.02 646.84 996.339 661.124C974.39 672.874 955.746 695.651 948.919 719.659C945.972 730.023 945.178 740.766 942.812 751.239C940.081 763.331 936.227 775.327 932.561 787.162C925.436 810.159 910.345 860.956 896.435 879.093C891.566 885.443 886.069 889.387 879.055 893.078C877.685 893.51 876.315 893.967 874.928 894.342C844.915 902.452 836.247 860.105 822.795 842.742C813.131 830.268 800.401 821.974 786.978 814.102C787.811 733.195 814.709 653.039 869.636 592.743C927.697 529.007 1009.4 494.692 1094.87 490.578Z"></path>
    <path
      d="M1039.26 667.348C1058.47 665.489 1077.21 669.105 1093.8 679.193Q1094.77 679.775 1095.72 680.381Q1096.67 680.987 1097.6 681.617Q1098.53 682.246 1099.45 682.899Q1100.37 683.552 1101.27 684.228Q1102.18 684.904 1103.06 685.602Q1103.94 686.3 1104.81 687.02Q1105.68 687.74 1106.53 688.482Q1107.38 689.223 1108.2 689.986Q1109.03 690.749 1109.84 691.532Q1110.65 692.315 1111.45 693.119Q1112.24 693.922 1113.01 694.745Q1113.78 695.568 1114.52 696.41Q1115.27 697.252 1116 698.112Q1116.73 698.973 1117.43 699.851Q1118.14 700.73 1118.82 701.625Q1119.51 702.521 1120.17 703.434Q1120.83 704.347 1121.47 705.276Q1122.11 706.205 1122.72 707.15Q1123.33 708.095 1123.92 709.054Q1124.51 710.014 1125.08 710.989Q1125.65 711.963 1126.19 712.951Q1126.73 713.94 1127.25 714.941Q1127.76 715.943 1128.25 716.957Q1128.75 717.971 1129.21 718.997Q1129.68 720.024 1130.12 721.061Q1130.56 722.099 1130.97 723.147Q1131.38 724.195 1131.77 725.254Q1132.16 726.312 1132.52 727.38Q1132.88 728.447 1133.21 729.524Q1133.55 730.6 1133.85 731.685Q1134.16 732.769 1134.44 733.861Q1134.72 734.953 1134.97 736.051C1140.36 759.111 1135.62 783.038 1122.99 802.959C1108.53 825.759 1087.73 836.94 1061.99 842.75C1041.64 844.905 1021.22 841.4 1003.74 830.377C983.82 817.82 969.378 796.576 964.428 773.61C959.424 750.392 964.392 723.393 977.536 703.583C992.147 681.56 1014.18 672.247 1039.26 667.348Z"></path>
  </g>
</svg>
